PathFileType	4	(X/Y/Z)	C:/Users/beibeiliu/ov580/test_trc\sequence.32_training_dense_right.trc
DataRate	CameraRate	NumFrames	NumMarkers	Units	OrigDataRate	OrigDataStartFrame	OrigNumFrames
120	120	8	19	mm	120	29	200
Frame#	Time	ThumbCMC			ThumbMCP			ThumbIP			ThumbTip			IndexMCP			IndexPIP			IndexTip			MiddleMCP			MiddlePIP			MiddleTip			RingMCP			RingPIP			RingTip			PinkyMCP			PinkyPIP			PinkyTip			BackHand1			BackHand2			BackHand3	
		X0	Y0	Z0	X1	Y1	Z1	X2	Y2	Z2	X3	Y3	Z3	X4	Y4	Z4	X5	Y5	Z5	X6	Y6	Z6	X7	Y7	Z7	X8	Y8	Z8	X9	Y9	Z9	X10	Y10	Z10	X11	Y11	Z11	X12	Y12	Z12	X13	Y13	Z13	X14	Y14	Z14	X15	Y15	Z15	X16	Y16	Z16	X17	Y17	Z17	X18	Y18	Z18	
28	0.233333	92.0164	37.6302	29.8274	96.6393	54.8564	8.73141	100.278	63.8507	-7.80517	106.207	74.354	-25.4546	68.4832	40.6586	-33.9226	63.4257	58.536	-48.0029	58.109	88.9676	-49.4295	43.4979	37.6049	-30.7675	37.0664	61.3728	-44.2244	39.7569	91.3131	-29.4317	25.5082	29.1925	-17.6667	14.9824	35.9476	-36.2761	7.27741	47.4979	-52.5068	13.9494	26.1593	6.41411	1.76384	21.7421	-4.78899	-9.76241	13.9825	-12.4602	45.4642	15.3583	22.9225	51.7926	8.75598	48.4646	73.5544	13.6141	22.5319	
29	0.241667	91.2022	40.451	29.2469	96.2389	59.3002	9.81944	103.911	69.7662	-11.8389	104.566	78.7189	-30.5602	63.8361	48.5923	-35.233	59.2716	69.5082	-43.6036	54.7277	94.5807	-33.4363	42.9595	32.1364	-35.7089	33.3488	50.0549	-54.9181	30.6401	79.9633	-61.984	26.8469	25.7714	-17.6133	16.2892	28.1762	-41.3499	7.85028	35.0946	-60.3042	16.0561	25.4187	3.67936	1.06182	18.6992	-7.75643	-9.19723	10.3015	-14.2623	45.2307	16.8334	18.1202	51.5657	9.63639	44.5547	76.2157	17.0151	23.1593	
30	0.25	93.6449	43.3673	23.3371	98.4109	61.8075	4.55217	100.911	72.7949	-12.8997	101.568	82.5587	-29.5583	70.1654	50.0598	-36.4848	56.3964	73.0363	-41.5034	51.5408	94.9355	-30.4048	47.6767	29.6315	-38.8575	37.9846	39.6617	-62.2518	27.5306	56.5412	-79.8567	30.4123	20.2083	-23.9527	23.0239	20.2704	-45.3146	8.76683	23.0639	-65.2655	19.8145	21.1315	-3.99085	8.23765	14.9135	-17.5062	-1.95586	5.73649	-25.0105	47.781	15.916	15.6569	55.795	11.5505	38.1925	78.0635	17.2235	19.9773	
31	0.258333	91.0921	54.9322	24.0803	89.5441	75.4205	0.946161	88.2781	85.6118	-15.7763	84.6342	97.153	-34.923	69.7884	51.7413	-37.3414	54.1553	75.346	-46.6006	38.8124	94.0118	-35.1125	55.5619	29.0479	-43.356	46.0742	34.1356	-64.1991	37.0741	43.9366	-89.1429	41.7992	18.4867	-30.7203	32.918	16.6624	-51.1151	27.925	18.3357	-69.4452	28.3976	14.0543	-9.28424	22.5683	8.9201	-25.9214	16.5554	0.352886	-42.3725	57.8574	17.0116	10.9303	67.4177	12.5388	36.71	81.7749	24.2291	17.9473	
32	0.266667	79.1869	77.7952	30.742	64.8168	93.4924	4.58006	57.9066	101.653	-15.3234	47.9037	104.698	-33.3153	72.5797	68.9409	-35.7336	47.5199	83.0745	-49.3835	26.1423	88.9796	-43.5682	72.618	45.2545	-40.8699	65.6433	49.46	-67.0584	54.1896	48.0244	-90.2183	65.3185	27.5182	-33.6297	61.7291	27.7027	-56.6095	53.1696	27.0946	-78.6444	57.0097	15.5442	-16.7447	54.5436	8.47209	-35.6625	54.3413	8.25501	-58.774	76.0585	24.1462	9.77002	79.8188	22.4141	33.0162	90.629	45.8638	16.2914	
33	0.275	53.3459	81.021	34.9182	33.108	86.8377	13.8253	23.8157	90.855	-7.65042	16.1875	93.8325	-30.1108	59.5686	91.4482	-32.0797	41.1359	86.2939	-48.2105	18.6011	73.5251	-51.0533	79.2068	70.8758	-36.3731	74.8248	77.9675	-62.1996	68.55	79.4278	-85.373	85.8436	55.1116	-35.9954	85.0079	58.6837	-56.9217	79.8005	58.821	-76.5588	87.3044	36.4511	-22.0008	91.3719	36.8646	-39.8587	95.309	39.5389	-62.5659	91.4965	50.0192	10.9516	92.4213	47.4754	32.9099	83.2209	74.5743	27.3792	
34	0.283333	38.3203	66.555	32.2755	19.2261	61.8168	7.89429	14.5985	61.1239	-10.0197	2.26198	62.4823	-31.8768	43.1936	93.5608	-25.3853	26.8481	82.4417	-48.1544	21.3952	62.521	-57.0263	63.7919	100.981	-29.9312	62.5635	106.572	-51.2853	59.6088	110.632	-79.3098	84.027	89.5628	-24.3329	86.4712	97.5769	-44.0398	82.5061	106.272	-68.4651	98.7088	71.6096	-16.1612	106.587	79.0471	-32.4914	109.861	89.576	-49.0557	87.9961	72.0893	16.7841	88.37	66.2842	40.5669	64.6803	84.0101	30.9312	
35	0.291667	35.329	57.3989	32.8917	18.3506	49.5118	4.31931	8.88771	46.1845	-13.0595	4.9864	45.0712	-33.0118	27.8704	90.1207	-27.4692	27.5458	77.9119	-47.9711	24.5462	54.7051	-59.6696	55.1676	105.729	-29.6187	53.0259	112.932	-50.6724	54.1297	119.515	-74.1828	79.9088	98.4126	-20.2299	77.6321	113.609	-40.8655	81.8784	123.628	-60.8508	95.741	88.747	-13.2683	100.81	95.7293	-23.4678	109.401	110.359	-36.77	77.5002	84.0817	19.4035	82.5153	73.4781	43.9489	57.2339	83.9953	32.2281	
